# xmcd CD database file
#
# Track frame offsets:
#	150
#	3485
#	5211
#	6886
#	8681
#	10452
#	12214
#	13984
#	15775
#	17380
#	19156
#	21019
#	22592
#	24149
#	25735
#	27374
#	28796
#	30205
#	31659
#	33053
#	34459
#	35828
#	37249
#	38556
#	39921
#	41338
#	43162
#	44967
#	46756
#	48566
#	49977
#	51405
#	52697
#	54239
#	55533
#	56924
#	58397
#	59880
#	61073
#	62210
#	63709
#	65020
#	66253
#	67499
#	68968
#	70743
#	72231
#	73520
#	74930
#	76526
#	77737
#	78864
#	80200
#	81506
#	82963
#	84582
#	85893
#	87515
#	88992
#	90498
#	91676
#	92951
#	93955
#	95156
#	96321
#	97389
#	98865
#	99984
#	101001
#	102153
#	103698
#	104736
#	105978
#	107233
#	130059
#	152883
#	175653
#	198423
#	220799
#	243175
#	268100
#	293025
#	315300
#
# Disc length: 4498 seconds
#
# Revision: 0
# Processed by: cddbd v1.5.2PL0 Copyright (c) Steve Scherf et al.
# Submitted via: CDex 1.70beta3
#
DISCID=6d119053
DTITLE=藤岡幹大 - アドリブ・ギターの虎の巻　～オール・ジャンル編～
DYEAR=2016
DGENRE=Lesson
TTITLE0=ジャムの雰囲気はこんな感じ!
TTITLE1=Cメジャー・スケール・エクササイズPt.1
TTITLE2=Cメジャー・スケール・エクササイズPt.2
TTITLE3=Cメジャー・スケール・エクササイズPt.3
TTITLE4=Cメジャー・スケール・エクササイズPt.4
TTITLE5=Cメジャー・スケール・エクササイズPt.5
TTITLE6=Aマイナー・スケール・エクササイズPt.1
TTITLE7=Aマイナー・スケール・エクササイズPt.2
TTITLE8=Aマイナー・スケール・エクササイズPt.3
TTITLE9=Aマイナー・スケール・エクササイズPt.4
TTITLE10=Aマイナー・スケール・エクササイズPt.5
TTITLE11=Aマイナー・ペンタのエクササイズ/5弦ルート
TTITLE12=Aマイナー・ペンタのエクササイズ/6弦ルート
TTITLE13=Cメジャー・ペンタのエクササイズ/5弦ルート
TTITLE14=Cメジャー・ペンタのエクササイズ/6弦ルート
TTITLE15=Cドリアンのエクササイズ/5弦ルート
TTITLE16=Cドリアンのエクササイズ/6弦ルート
TTITLE17=Cフリジアンのエクササイズ/5弦ルート
TTITLE18=Cフリジアンのエクササイズ/6弦ルート
TTITLE19=Cリディアンのエクササイズ/5弦ルート
TTITLE20=Cリディアンのエクササイズ/6弦ルート
TTITLE21=Cミクソリディアンのエクササイズ/5弦ルート
TTITLE22=Cミクソリディアンのエクササイズ/6弦ルート
TTITLE23=Cロクリアンのエクササイズ/5弦ルート
TTITLE24=Cロクリアンのエクササイズ/6弦ルート
TTITLE25=Aハーモニック・マイナー・スケール・エクササイズ/5弦ルート
TTITLE26=Aハーモニック・マイナー・スケール・エクササイズ/6弦ルート
TTITLE27=Aハーモニック・マイナー・P5th↓のエクササイズ/6弦ルート
TTITLE28=Aハーモニック・マイナー・P5th↓のエクササイズ/5弦ルート
TTITLE29=Dメロディック・マイナー・スケール・エクササイズ/5弦ルート
TTITLE30=Dメロディック・マイナー・スケール・エクササイズ/6弦ルート
TTITLE31=Cホールトーン・マイナー・スケール・エクササイズ
TTITLE32=Cコンビネーション・オブ・ディミニッシュ・スケールのエクササイズ
TTITLE33=マイナー・ペンタ3音パターン[基本]
TTITLE34=マイナー・ペンタ3音パターン[発展]
TTITLE35=コード進行に沿ったラン・フレーズ[基本]
TTITLE36=コード進行に沿ったラン・フレーズ[発展]
TTITLE37=コード進行に沿ったR&R風ソロ[基本]
TTITLE38=コード進行に沿ったR&R風ソロ[発展]
TTITLE39=マイナー・ペンタ+♭5thの使用例[基本]
TTITLE40=マイナー・ペンタ+♭5thの使用例[発展]
TTITLE41=コード・アルペジオ含みのブルース・リック[基本]
TTITLE42=コード・アルペジオ含みのブルース・リック[発展]
TTITLE43=異弦同音含みのストレッチ・ペンタ[基本]
TTITLE44=異弦同音含みのストレッチ・ペンタ[発展]
TTITLE45=Eマイナー・ペンタで弾くFリディアン・フレーズ
TTITLE46=Aマイナー・ペンタ+Bマイナー・ペンタ=ドリアン!
TTITLE47=フル・ピッキングによる畳み掛けリック[基本]
TTITLE48=フル・ピッキングによる畳み掛けリック[発展]
TTITLE49=No Pickingのレガート・フレーズ(Aドリアン)
TTITLE50=コンディミ使用によるメカニカル・レガート
TTITLE51=リニアに移動する1本弦上タッピング
TTITLE52=弦跳びを含む1本指Tap
TTITLE53=メジャー型3本弦アルペジオ[基本]
TTITLE54=メジャー型3本弦アルペジオ[発展]
TTITLE55=マイナー型5本弦アルペジオ[基本]
TTITLE56=マイナー型5本弦アルペジオ[発展]
TTITLE57=ノイズに要注意のスキッピング・アルペジオ[基本]
TTITLE58=ノイズに要注意のスキッピング・アルペジオ[発展]
TTITLE59=[Imaj7→VI7→IIm7→V7]でのコード・トーン奏法[基本]
TTITLE60=[Imaj7→VI7→IIm7→V7]でのコード・トーン奏法[発展]
TTITLE61=マイナーKeyの”ツー・ファイヴ”におけるリード・プレイ1
TTITLE62=マイナーKeyの”ツー・ファイヴ”におけるリード・プレイ2
TTITLE63=ホールトーン・スケールと使用したフレージング[基本]
TTITLE64=ホールトーン・スケールと使用したフレージング[発展]
TTITLE65=コンディミを使用したフレージング例1
TTITLE66=コンディミを使用したフレージング例2
TTITLE67=[IIm7→V7→Imaj7]進行をリハモしたアウト・フレーズ[基本]
TTITLE68=[IIm7→V7→Imaj7]進行をリハモしたアウト・フレーズ[発展]
TTITLE69=”半音ズラし”によるアウト・フレージング[基本]
TTITLE70=”半音ズラし”によるアウト・フレージング[発展]
TTITLE71=ポリリズムによるリズム・トリック[5音単位/基本]
TTITLE72=ポリリズムによるリズム・トリック[5音単位/発展]
TTITLE73=”スロー・チェンジ”によるスタンダードな12小節ブルース(B&RG入り)
TTITLE74=”スロー・チェンジ”によるスタンダードな12小節ブルース(B&RGなし)
TTITLE75=key=Aマイナーでのマイナー・ブルース進行(B&RG入り)
TTITLE76=key=Aマイナーでのマイナー・ブルース進行(B&RGなし)
TTITLE77=クロスオーヴァーなSession-3例題曲のコード進行(B&RG入り)
TTITLE78=クロスオーヴァーなSession-3例題曲のコード進行(B&RGなし)
TTITLE79=80'sを彷彿とさせるヘヴィ・メタル系例題曲のコード進行(B&RG入り)
TTITLE80=80'sを彷彿とさせるヘヴィ・メタル系例題曲のコード進行(B&RGなし)
TTITLE81=ジャンルごちゃまぜなプログレッシヴ例題曲のコード進行(B&RG入り)
TTITLE82=ジャンルごちゃまぜなプログレッシヴ例題曲のコード進行(B&RGなし)
EXTD=YEAR: 2016
EXTT0=
EXTT1=
EXTT2=
EXTT3=
EXTT4=
EXTT5=
EXTT6=
EXTT7=
EXTT8=
EXTT9=
EXTT10=
EXTT11=
EXTT12=
EXTT13=
EXTT14=
EXTT15=
EXTT16=
EXTT17=
EXTT18=
EXTT19=
EXTT20=
EXTT21=
EXTT22=
EXTT23=
EXTT24=
EXTT25=
EXTT26=
EXTT27=
EXTT28=
EXTT29=
EXTT30=
EXTT31=
EXTT32=
EXTT33=
EXTT34=
EXTT35=
EXTT36=
EXTT37=
EXTT38=
EXTT39=
EXTT40=
EXTT41=
EXTT42=
EXTT43=
EXTT44=
EXTT45=
EXTT46=
EXTT47=
EXTT48=
EXTT49=
EXTT50=
EXTT51=
EXTT52=
EXTT53=
EXTT54=
EXTT55=
EXTT56=
EXTT57=
EXTT58=
EXTT59=
EXTT60=
EXTT61=
EXTT62=
EXTT63=
EXTT64=
EXTT65=
EXTT66=
EXTT67=
EXTT68=
EXTT69=
EXTT70=
EXTT71=
EXTT72=
EXTT73=
EXTT74=
EXTT75=
EXTT76=
EXTT77=
EXTT78=
EXTT79=
EXTT80=
EXTT81=
EXTT82=
PLAYORDER=
